<mxfile host="Electron" modified="2024-02-02T13:11:33.773Z" agent="Mozilla/5.0 (Windows NT 10.0; Win64; x64) AppleWebKit/537.36 (KHTML, like Gecko) draw.io/22.0.2 Chrome/114.0.5735.289 Electron/25.8.4 Safari/537.36" etag="41SXJtsM2uzrn75NgvjB" version="22.0.2" type="device">
  <diagram id="RoFN31DEDuAoprLHtcjy" name="Page-1">
    <mxGraphModel dx="863" dy="505" grid="1" gridSize="10" guides="1" tooltips="1" connect="1" arrows="1" fold="1" page="0" pageScale="1" pageWidth="827" pageHeight="1169" math="0" shadow="0">
      <root>
        <mxCell id="0" />
        <mxCell id="1" parent="0" />
        <mxCell id="3Ych9QoQo4VoyjM5WHYG-4" value="" style="rounded=0;whiteSpace=wrap;html=1;fillColor=none;dashed=1;" parent="1" vertex="1">
          <mxGeometry x="140" y="210" width="140" height="280" as="geometry" />
        </mxCell>
        <mxCell id="NrXn7nHfLIqUMkxgtaWz-2" value="Static application security testing" style="rounded=1;whiteSpace=wrap;html=1;glass=0;fillColor=#ffe6cc;strokeColor=#d79b00;" parent="1" vertex="1">
          <mxGeometry x="170" y="320" width="80" height="60" as="geometry" />
        </mxCell>
        <mxCell id="NrXn7nHfLIqUMkxgtaWz-8" value="" style="ellipse;whiteSpace=wrap;html=1;aspect=fixed;fillColor=#000000;" parent="1" vertex="1">
          <mxGeometry x="325" y="430" width="20" height="20" as="geometry" />
        </mxCell>
        <mxCell id="NrXn7nHfLIqUMkxgtaWz-9" value="" style="ellipse;whiteSpace=wrap;html=1;aspect=fixed;rounded=0;shadow=0;glass=0;sketch=0;fillColor=none;" parent="1" vertex="1">
          <mxGeometry x="320" y="425" width="30" height="30" as="geometry" />
        </mxCell>
        <mxCell id="3Ych9QoQo4VoyjM5WHYG-5" value="Test applications" style="text;html=1;fillColor=#e1d5e7;align=center;verticalAlign=middle;whiteSpace=wrap;rounded=1;dashed=1;fontStyle=1;fontSize=15;strokeColor=none;gradientColor=none;gradientDirection=south;" parent="1" vertex="1">
          <mxGeometry x="140" y="160" width="140" height="40" as="geometry" />
        </mxCell>
        <mxCell id="3Ych9QoQo4VoyjM5WHYG-9" value="Build applications" style="text;html=1;strokeColor=none;fillColor=#e1d5e7;align=center;verticalAlign=middle;whiteSpace=wrap;rounded=1;dashed=1;fontStyle=1;fontSize=15;" parent="1" vertex="1">
          <mxGeometry x="300" y="160" width="90" height="40" as="geometry" />
        </mxCell>
        <mxCell id="6qBjJutos2vkdkk0qgOa-2" value="" style="endArrow=none;dashed=1;html=1;rounded=0;fontSize=15;" parent="1" edge="1">
          <mxGeometry width="50" height="50" relative="1" as="geometry">
            <mxPoint x="340" y="490" as="sourcePoint" />
            <mxPoint x="340" y="210" as="targetPoint" />
            <Array as="points">
              <mxPoint x="300" y="490" />
              <mxPoint x="300" y="210" />
            </Array>
          </mxGeometry>
        </mxCell>
        <mxCell id="hjqb28hFsZi5MVu-S77l-1" value="" style="endArrow=none;dashed=1;html=1;rounded=0;fontSize=15;" parent="1" edge="1">
          <mxGeometry width="50" height="50" relative="1" as="geometry">
            <mxPoint x="80" y="490" as="sourcePoint" />
            <mxPoint x="80" y="210" as="targetPoint" />
            <Array as="points">
              <mxPoint x="120" y="490" />
              <mxPoint x="120" y="210" />
            </Array>
          </mxGeometry>
        </mxCell>
        <mxCell id="hjqb28hFsZi5MVu-S77l-2" value="" style="edgeStyle=orthogonalEdgeStyle;rounded=0;orthogonalLoop=1;jettySize=auto;html=1;exitX=0.5;exitY=0;exitDx=0;exitDy=0;entryX=0;entryY=0.5;entryDx=0;entryDy=0;" parent="1" source="hjqb28hFsZi5MVu-S77l-3" target="hjqb28hFsZi5MVu-S77l-18" edge="1">
          <mxGeometry relative="1" as="geometry">
            <Array as="points">
              <mxPoint x="100" y="260" />
            </Array>
            <mxPoint x="60" y="245" as="targetPoint" />
          </mxGeometry>
        </mxCell>
        <mxCell id="hjqb28hFsZi5MVu-S77l-3" value="" style="ellipse;whiteSpace=wrap;html=1;aspect=fixed;fillColor=#000000;" parent="1" vertex="1">
          <mxGeometry x="90" y="430" width="20" height="20" as="geometry" />
        </mxCell>
        <mxCell id="hjqb28hFsZi5MVu-S77l-4" value="Deploy infrastucture" style="text;html=1;strokeColor=none;fillColor=#e1d5e7;align=center;verticalAlign=middle;whiteSpace=wrap;rounded=1;dashed=1;fontStyle=1;fontSize=15;" parent="1" vertex="1">
          <mxGeometry x="30" y="160" width="90" height="40" as="geometry" />
        </mxCell>
        <mxCell id="hjqb28hFsZi5MVu-S77l-9" value="" style="endArrow=classic;html=1;rounded=0;entryX=0;entryY=0.5;entryDx=0;entryDy=0;" parent="1" edge="1" target="NrXn7nHfLIqUMkxgtaWz-2">
          <mxGeometry width="50" height="50" relative="1" as="geometry">
            <mxPoint x="100" y="350" as="sourcePoint" />
            <mxPoint x="160" y="350" as="targetPoint" />
          </mxGeometry>
        </mxCell>
        <mxCell id="hjqb28hFsZi5MVu-S77l-10" value="" style="endArrow=classic;html=1;rounded=0;entryX=0;entryY=0.5;entryDx=0;entryDy=0;exitX=1;exitY=0.5;exitDx=0;exitDy=0;" parent="1" target="NrXn7nHfLIqUMkxgtaWz-9" edge="1" source="CeksJdr9aENdMmGf5Ev_-1">
          <mxGeometry width="50" height="50" relative="1" as="geometry">
            <mxPoint x="480" y="350" as="sourcePoint" />
            <mxPoint x="360" y="220" as="targetPoint" />
          </mxGeometry>
        </mxCell>
        <mxCell id="hjqb28hFsZi5MVu-S77l-11" value="" style="endArrow=none;html=1;rounded=0;endFill=0;exitX=1;exitY=0.5;exitDx=0;exitDy=0;" parent="1" source="hjqb28hFsZi5MVu-S77l-18" edge="1">
          <mxGeometry width="50" height="50" relative="1" as="geometry">
            <mxPoint x="360" y="260" as="sourcePoint" />
            <mxPoint x="290" y="440" as="targetPoint" />
            <Array as="points">
              <mxPoint x="290" y="260" />
            </Array>
          </mxGeometry>
        </mxCell>
        <mxCell id="hjqb28hFsZi5MVu-S77l-18" value="Linting" style="rounded=1;whiteSpace=wrap;html=1;glass=0;fillColor=#ffe6cc;strokeColor=#d79b00;" parent="1" vertex="1">
          <mxGeometry x="170" y="230" width="80" height="60" as="geometry" />
        </mxCell>
        <mxCell id="CeksJdr9aENdMmGf5Ev_-1" value="Unit tests" style="rounded=1;whiteSpace=wrap;html=1;glass=0;fillColor=#ffe6cc;strokeColor=#d79b00;" vertex="1" parent="1">
          <mxGeometry x="170" y="410" width="80" height="60" as="geometry" />
        </mxCell>
        <mxCell id="CeksJdr9aENdMmGf5Ev_-2" value="" style="endArrow=classic;html=1;rounded=0;entryX=0;entryY=0.5;entryDx=0;entryDy=0;exitX=1;exitY=0.5;exitDx=0;exitDy=0;" edge="1" parent="1" source="hjqb28hFsZi5MVu-S77l-3" target="CeksJdr9aENdMmGf5Ev_-1">
          <mxGeometry width="50" height="50" relative="1" as="geometry">
            <mxPoint x="110" y="360" as="sourcePoint" />
            <mxPoint x="170" y="360" as="targetPoint" />
          </mxGeometry>
        </mxCell>
        <mxCell id="CeksJdr9aENdMmGf5Ev_-4" value="" style="endArrow=none;html=1;rounded=0;exitX=1;exitY=0.5;exitDx=0;exitDy=0;" edge="1" parent="1" source="NrXn7nHfLIqUMkxgtaWz-2">
          <mxGeometry width="50" height="50" relative="1" as="geometry">
            <mxPoint x="260" y="350" as="sourcePoint" />
            <mxPoint x="290" y="350" as="targetPoint" />
          </mxGeometry>
        </mxCell>
      </root>
    </mxGraphModel>
  </diagram>
</mxfile>
